<svg width="131" height="131" viewBox="0 0 131 131" fill="none" xmlns="http://www.w3.org/2000/svg">
<g opacity="0.3" clip-path="url(#clip0_42_29)">
<path d="M25.0155 94.5437C19.3935 88.5723 16.375 81.8749 16.375 71.0183C16.375 51.9141 29.7861 34.7913 49.2887 26.3254L54.163 33.847C35.9595 43.6939 32.4007 56.4718 30.9815 64.5283C33.9126 63.0109 37.7498 62.4814 41.5106 62.8308C51.3575 63.7423 59.1192 71.8261 59.1192 81.8749C59.1192 86.9416 57.1065 91.8009 53.5237 95.3836C49.941 98.9663 45.0818 100.979 40.015 100.979C34.1582 100.979 28.558 98.3045 25.0155 94.5437ZM79.5989 94.5437C73.9768 88.5723 70.9583 81.8749 70.9583 71.0183C70.9583 51.9141 84.3695 34.7913 103.872 26.3254L108.746 33.847C90.5428 43.6939 86.984 56.4718 85.5648 64.5283C88.496 63.0109 92.3332 62.4814 96.0939 62.8308C105.941 63.7423 113.703 71.8261 113.703 81.8749C113.703 86.9416 111.69 91.8009 108.107 95.3836C104.524 98.9663 99.6651 100.979 94.5984 100.979C88.7416 100.979 83.1413 98.3045 79.5989 94.5437Z" fill="#00518F"/>
</g>
<defs>
<clipPath id="clip0_42_29">
<rect width="131" height="131" fill="white"/>
</clipPath>
</defs>
</svg>
