<svg width="79" height="90" viewBox="0 0 79 90" fill="none" xmlns="http://www.w3.org/2000/svg">
<path d="M15.5612 75.0653C14.7454 76.6861 13.8572 78.2602 12.594 79.593C12.643 79.6656 12.6618 79.7177 12.6988 79.7439C14.2402 80.8372 15.7662 81.9489 17.3265 83.0128C18.9322 84.1084 20.7145 84.847 22.5653 85.4096C24.3472 85.9499 26.1429 86.4449 27.9321 86.9609C28.1421 87.0211 28.3559 87.0743 28.5575 87.1538C29.2573 87.4313 29.6388 88.146 29.463 88.8298C29.2808 89.539 28.6457 89.977 27.8924 89.9072C27.7647 89.8938 27.6383 89.8703 27.5143 89.837C25.2485 89.2581 23.0011 88.6202 20.7846 87.8689C18.3384 87.0408 16.1219 85.7966 14.0437 84.2747C12.9262 83.4543 11.7886 82.6566 10.6584 81.8517C10.3336 81.6201 10.3293 81.6244 9.99485 81.869C8.84844 82.7072 7.64076 83.4354 6.29551 83.9062C5.27549 84.2631 4.23505 84.4429 3.1526 84.2365C0.855928 83.7977 -0.546741 81.4453 0.203147 79.2585C0.583101 78.1482 1.40389 77.4563 2.44896 77.0087C3.605 76.5136 4.80845 76.4322 6.04002 76.639C7.21572 76.8362 8.32128 77.2426 9.39063 77.7581C9.50623 77.8141 9.62183 77.8739 9.73744 77.9287C10.0369 78.0722 10.0396 78.0745 10.2685 77.8457C10.8209 77.2883 11.3118 76.673 11.7328 76.0104C12.4014 74.9685 12.9362 73.8563 13.4784 72.7469C13.5902 72.5177 13.5169 72.3633 13.3871 72.187C12.5327 71.0274 11.7496 69.8168 11.0422 68.5619C7.26697 61.8802 5.69767 54.1743 6.55863 46.5457C7.41959 38.9172 10.6667 31.7564 15.836 26.087C15.9046 26.0122 15.9651 25.9303 16.0529 25.8231C15.9585 25.698 15.8741 25.5738 15.777 25.4599C13.0061 22.2118 10.2351 18.9642 7.46388 15.7173C7.10512 15.2967 6.73904 14.8818 6.39107 14.4523C6.23 14.2536 6.06777 14.1737 5.79879 14.2146C4.76991 14.369 3.80615 14.1629 2.91561 13.6223C2.17844 13.1746 1.64397 12.5476 1.29176 11.7638C1.03512 11.197 0.953399 10.5664 1.05708 9.95283C1.24629 8.77199 1.75649 7.77407 2.76764 7.09297C4.62772 5.83998 7.07776 6.70129 7.77717 8.83335C8.08044 9.75525 8.19142 10.6883 8.0288 11.6477C8.00183 11.8082 8.00877 11.9363 8.1263 12.0722C9.56956 13.7472 11.009 15.4256 12.4445 17.1073C14.2418 19.2089 16.0369 21.3117 17.8298 23.4159C17.9199 23.5216 18.0178 23.6212 18.138 23.75C18.2536 23.6567 18.3554 23.5826 18.4463 23.5C19.7786 22.3083 21.1966 21.2165 22.689 20.2334C22.9973 20.0293 23.0015 20.0258 22.8358 19.6796C20.9556 15.7461 19.0762 11.8123 17.1978 7.87826C17.086 7.64326 16.9408 7.53636 16.6818 7.49237C15.6695 7.32451 14.7674 6.91816 14.0345 6.17725C12.6857 4.8135 12.6618 2.68877 13.9959 1.315C14.9053 0.376117 16.0132 -0.0904271 17.3261 0.0145358C18.8606 0.136864 19.9465 1.17685 20.1434 2.70653C20.1856 3.05099 20.1856 3.39934 20.1434 3.74381C20.0567 4.4716 19.9557 5.2021 19.6247 5.87046C19.5218 6.07885 19.6108 6.24131 19.6945 6.41573C20.4215 7.93538 21.1482 9.45528 21.8748 10.9754C23.0123 13.3538 24.1499 15.7321 25.2874 18.1102C25.3475 18.236 25.4134 18.3595 25.4943 18.5181C25.6052 18.4804 25.714 18.437 25.8203 18.3881C31.1853 15.5774 37.1666 14.1539 43.2206 14.2472C49.2747 14.3405 55.2095 15.9475 60.4855 18.9221C63.0596 20.3727 65.4534 22.0818 67.5871 24.1298C72.5427 28.8851 75.9692 34.5635 77.7584 41.2133C77.9356 41.8693 78.0767 42.5388 78.2378 43.201C78.2925 43.4256 78.3587 43.6471 78.4177 43.8705C78.4535 44.0071 78.5021 44.143 78.5171 44.2819C78.6512 45.5218 78.8146 46.7601 78.9025 48.0034C79.3741 54.6236 78.1349 60.9072 75.1846 66.8543C72.0194 73.2105 67.3875 78.2181 61.289 81.8771C57.2189 84.3247 52.8354 85.9038 48.1386 86.6143C43.2505 87.3632 38.4098 87.1188 33.6163 85.8812C26.9765 84.1554 21.2678 80.8248 16.4903 75.8892C16.2205 75.6137 15.94 75.3513 15.6637 75.0835C15.6572 75.0742 15.6406 75.0765 15.5612 75.0653ZM19.6459 60.653C19.676 63.0625 19.9083 65.4551 20.2563 67.8372C20.6043 70.2193 21.163 72.5366 22.1387 74.7393C22.6489 75.8908 23.3541 76.9149 24.3287 77.7334C24.8365 78.1602 25.3941 78.501 26.0469 78.6488C26.2969 78.7045 26.5527 78.7304 26.8088 78.7259C27.04 78.7221 27.1556 78.5693 27.1375 78.34C27.1214 78.1995 27.0967 78.06 27.0635 77.9225C26.5358 75.2326 26.2251 72.5045 26.1344 69.7647C25.9876 65.5313 26.2912 61.2943 27.04 57.1252C28.69 47.8911 32.105 39.3698 37.3673 31.6022C40.2894 27.2883 43.7067 23.4147 47.712 20.0725C48.0588 19.7846 48.4122 19.5079 48.7586 19.2212C49.0441 18.985 49.0283 18.8515 48.6769 18.7114C48.4399 18.6169 48.1894 18.5305 47.9386 18.5034C47.3262 18.4375 46.7108 18.3954 46.0955 18.3711C45.9022 18.3682 45.7108 18.4101 45.5363 18.4934C44.8041 18.8353 44.0631 19.166 43.3575 19.5585C41.4612 20.6131 39.7796 21.9676 38.1465 23.385C32.9828 27.8656 28.759 33.0906 25.6227 39.1842C23.5672 43.1778 21.8786 47.31 20.8166 51.6872C20.1033 54.6308 19.6131 57.6064 19.6459 60.6515V60.653ZM39.4713 18.2654C39.2509 18.2241 39.0906 18.1801 38.928 18.1666C37.7296 18.0586 36.5269 18.3208 35.4818 18.9179C34.4891 19.4755 33.6148 20.1913 32.7412 20.9087C27.9571 24.8325 24.0778 29.5253 20.9958 34.8819C17.6694 40.661 15.4367 46.8261 14.5928 53.4665C14.1447 56.9955 14.1412 60.5214 14.7146 64.04C15.1138 66.4893 15.8013 68.8529 16.8398 71.1115C17.0517 71.5726 17.4564 71.8246 17.8336 72.1036C17.9958 72.2232 18.1369 72.1175 18.1215 71.9145C18.1084 71.8254 18.0891 71.7374 18.0637 71.651C17.9457 71.1242 17.8151 70.5998 17.7122 70.0688C17.3007 67.9464 17.0695 65.7989 16.8907 63.6448C16.6127 60.2948 16.7971 56.9224 17.4386 53.6228C18.3107 49.1025 19.7804 44.7859 21.6952 40.6028C24.1957 35.1432 27.4554 30.1952 31.5169 25.7795C33.7485 23.3587 36.1827 21.1334 38.7927 19.1278C39.0752 18.9106 39.2702 18.6385 39.4713 18.2654ZM11.5424 62.8538L11.6133 62.8395C11.6071 62.7195 11.6021 62.5991 11.5944 62.4791C11.5289 61.4916 11.4303 60.5048 11.4018 59.5162C11.2935 55.6237 11.7459 51.7883 12.6514 48.0057C14.431 40.5704 17.6891 33.835 22.2601 27.7251C23.3857 26.2233 24.5907 24.7829 25.8701 23.4101C26.0658 23.1998 26.233 22.9798 26.2889 22.6877C26.3814 22.2045 26.092 21.8831 25.6188 21.9962C25.3189 22.0627 25.0317 22.1769 24.768 22.3346C22.1094 24.0053 19.705 26.0508 17.629 28.4082C14.1845 32.308 11.7723 36.7689 10.3925 41.7909C9.34978 45.585 9.00528 49.4498 9.32088 53.3716C9.57316 56.5171 10.273 59.6105 11.3991 62.5578C11.4391 62.6597 11.4946 62.7554 11.5424 62.8538ZM63.6388 53.4252L63.5475 53.431C63.4296 53.6564 63.3144 53.8833 63.1941 54.1075C62.2076 55.9447 61.0747 57.6913 59.9337 59.4328C56.7557 64.2796 52.6965 68.2655 48.0592 71.6884C46.4349 72.8874 44.7294 73.9652 42.9726 74.9627C42.6396 75.1518 42.3645 75.3903 42.1714 75.7206C42.0944 75.8503 42.0173 75.983 42.0944 76.1686C42.2192 76.1547 42.3321 76.1489 42.4412 76.13C46.3051 75.4219 50.0125 74.2619 53.4891 72.3911C57.0555 70.4721 60.3152 68.1548 63.1286 65.2231C64.2284 64.077 65.1282 62.8198 65.6515 61.3029C65.8877 60.6187 65.9343 59.941 65.7305 59.2576C65.1774 57.4087 64.5364 55.5905 63.8076 53.803C63.7575 53.6757 63.6962 53.5514 63.6388 53.4252ZM70.4017 67.5424C71.0633 66.9743 71.4968 66.3573 71.6629 65.5724C71.8895 64.5019 71.8606 63.428 71.7177 62.3482C71.3604 59.6562 70.6533 57.0549 69.7 54.5192C68.2225 50.5885 66.4993 46.7717 64.4276 43.1134C62.7899 40.2223 61.0292 37.4149 58.9387 34.826C56.6586 32.0024 54.0013 29.5601 51.2487 27.2146C50.137 26.2672 48.8981 25.5167 47.6091 24.8375C47.4677 24.763 47.3293 24.6982 47.1721 24.7777C46.5825 25.0756 46.08 25.4572 45.8924 26.1353C45.7448 26.6689 45.8585 26.9456 46.3255 27.2351C48.0646 28.3098 49.7936 29.4018 51.3181 30.7775C53.6132 32.8486 55.7076 35.1146 57.6378 37.5245C62.6311 43.7532 66.1447 50.7606 68.4869 58.3774C69.3732 61.2627 69.9416 64.2152 70.3308 67.2047C70.3439 67.2911 70.367 67.3745 70.4017 67.5424ZM60.1587 47.907C60.0524 48.1146 59.9518 48.3044 59.8578 48.497C58.6247 51.0176 57.2902 53.482 55.7396 55.822C53.5793 59.0824 50.9535 61.9241 47.9617 64.4355C44.3535 67.4638 40.3991 69.9335 36.0984 71.8447C34.0992 72.7388 32.0033 73.3551 29.8842 73.8938C29.7255 73.9324 29.569 73.9833 29.4245 74.0246C29.3817 74.5571 29.6476 76.2134 29.8206 76.5128C29.9027 76.5024 29.9917 76.4974 30.0781 76.4789C30.6306 76.3608 31.1821 76.2373 31.7351 76.1204C34.9843 75.4323 38.1052 74.3839 41.0042 72.7411C42.2555 72.0322 43.4893 71.2878 44.6912 70.4987C48.4075 68.0667 51.7533 65.1097 54.6248 61.7192C56.9492 58.9732 58.889 55.9532 60.6096 52.7966C61.0508 51.9862 61.3745 51.1122 61.7533 50.2679C61.8358 50.0846 61.8689 49.8974 61.7899 49.7072C61.65 49.3757 61.5225 49.0372 61.3556 48.72C61.1113 48.2535 60.6805 48.0451 60.1587 47.907ZM73.9457 58.5044C74.163 58.3026 74.3424 58.0634 74.4752 57.7982C74.8409 57.0874 75.002 56.3237 75.0309 55.5311C75.0694 54.4891 74.8713 53.4912 74.5373 52.5045C72.6543 46.9454 70.1016 41.637 66.9355 36.6968C63.8712 31.9032 60.1503 27.6947 55.8914 23.9484C55.2349 23.3728 54.5435 22.8384 53.8213 22.3481C52.8244 21.6701 51.866 22.1717 51.278 22.9655C51.0734 23.2422 51.1362 23.5301 51.3936 23.7057C52.8425 24.6928 54.1296 25.8752 55.4359 27.0363C59.1344 30.3143 62.3378 34.1129 64.9455 38.3133C67.8584 43.0003 70.3092 47.9598 72.2633 53.1219C72.8648 54.7099 73.3955 56.3206 73.8082 57.9695C73.8448 58.1177 73.8837 58.2647 73.9457 58.5044ZM56.9183 42.3914C56.8694 42.4875 56.8316 42.5535 56.8027 42.6229C56.286 43.8142 55.8008 45.0189 55.249 46.194C53.9419 48.9863 52.3909 51.6351 50.4707 54.0542C48.0927 57.0519 45.4404 59.7608 42.2666 61.9265C39.5668 63.7632 36.7307 65.3906 33.7832 66.7945C32.7728 67.278 31.7378 67.7064 30.6507 67.9753C30.0021 68.1363 29.7012 68.5854 29.4746 69.1361C29.3694 69.392 29.4153 69.6378 29.5621 69.872C29.9505 70.4894 30.5567 70.7314 31.2576 70.5164C32.6583 70.0877 34.0429 69.6146 35.3774 69.001C37.2367 68.1463 39.0239 67.158 40.7615 66.0814C44.9587 63.4804 48.67 60.3215 51.7439 56.434C53.2803 54.4907 54.5461 52.3729 55.7288 50.2026C56.6336 48.5433 57.4917 46.8608 58.1915 45.0988C58.4031 44.5659 58.3696 44.1005 58.1341 43.6232C57.996 43.3477 57.8358 43.0839 57.6551 42.8344C57.486 42.6013 57.2509 42.4454 56.9183 42.3914ZM30.0769 57.1962C30.1278 57.3968 30.1574 57.6307 30.2468 57.8387C30.4206 58.2431 30.5937 58.296 31.0033 58.1219C31.0626 58.0969 31.1216 58.0718 31.1798 58.0448C34.0375 56.7393 37.0097 55.758 40.0312 54.919C42.013 54.3743 44.0457 54.0368 46.097 53.9118C46.2734 53.8946 46.4437 53.8374 46.5949 53.7448C47.0777 53.4588 47.4257 53.0231 47.7894 52.6091C48.4969 51.8083 49.001 50.8891 49.3493 49.8831C49.4205 49.6769 49.4643 49.4622 49.4796 49.2445C49.5089 48.813 49.4071 48.7281 48.9701 48.7602C47.1336 48.8952 45.3248 49.2012 43.561 49.7288C39.654 50.8972 35.854 52.3316 32.2518 54.2711C31.6603 54.5899 31.1474 54.9657 30.7489 55.4971C30.3767 55.9922 30.2021 56.5649 30.0769 57.1962ZM52.5708 41.1685V41.1619C52.3539 41.1835 52.1358 41.2005 51.9196 41.2283C50.3119 41.4413 48.7366 41.8071 47.1868 42.2772C44.3814 43.1311 41.6732 44.2452 38.9788 45.3917C37.1434 46.1739 35.4009 47.134 33.6841 48.1454C33.0509 48.5184 32.5002 49.0167 32.0657 49.6099C31.8476 49.9043 31.767 50.2362 31.7848 50.5901C31.8009 50.9181 32.0364 51.0682 32.3478 50.9667C32.4558 50.9259 32.5611 50.8781 32.663 50.8235C33.241 50.5449 33.8144 50.254 34.3994 49.9896C36.6143 48.9886 38.9079 48.1917 41.21 47.4238C44.2766 46.4016 47.4164 45.7988 50.6603 45.8224C50.906 45.8216 51.1465 45.7511 51.3539 45.619C52.4132 44.9827 53.0379 44.0187 53.3805 42.8599C53.4779 42.5139 53.5311 42.1569 53.5388 41.7975C53.5539 41.3252 53.3053 41.1183 52.8402 41.1457C52.7496 41.1511 52.6602 41.1608 52.5708 41.1685ZM40.4474 80.6411C41.2894 80.5948 42.062 80.5875 42.8265 80.5049C48.4626 79.8944 53.7855 78.2814 58.7272 75.4705C61.368 73.9683 63.7671 72.1519 65.8261 69.9029C65.9367 69.7821 66.063 69.6474 66.1054 69.4969C66.2534 68.9763 66.3675 68.4407 66.2881 67.8985C66.2494 67.6465 66.155 67.4063 66.0118 67.1954C65.7698 66.8451 65.5629 66.8505 65.2708 67.1569C63.1577 69.3731 60.7856 71.3263 58.2058 72.9742C54.735 75.2008 51.0649 76.9875 47.065 78.0491C44.0801 78.8402 41.0489 79.3808 37.9835 79.7354C37.8682 79.7429 37.7539 79.7611 37.6421 79.7898C37.4494 79.8508 37.311 80.0542 37.3299 80.2294C37.3561 80.4721 37.553 80.4424 37.7122 80.4539C38.6467 80.5211 39.5815 80.5836 40.4474 80.6411ZM75.3261 46.3885C75.395 46.2565 75.4417 46.1955 75.4598 46.128C75.5993 45.6136 75.6575 45.0919 75.5615 44.5628C75.3066 43.1447 74.9553 41.7456 74.5099 40.3755C72.6093 34.5601 69.4025 29.5994 64.8095 25.551C64.3664 25.1601 63.9232 24.7673 63.45 24.4142C62.9876 24.0669 62.4978 23.7582 62.0053 23.4564C61.0967 22.8995 60.1788 22.3585 59.2609 21.8167C59.1333 21.7395 58.9877 21.6369 58.8328 21.7515C58.6682 21.8735 58.7249 22.0502 58.7507 22.2146C58.8027 22.5445 58.9588 22.8062 59.2046 23.0392C61.324 25.0482 63.3841 27.1154 65.216 29.3941C69.2661 34.4354 72.5377 39.9487 75.0983 45.8868C75.1615 46.035 75.2313 46.1809 75.3261 46.3885ZM53.2202 37.8695C53.113 37.5835 53.0298 37.2849 52.8915 37.0151C52.7758 36.7894 52.5997 36.5933 52.4418 36.3911C52.2017 36.0824 51.888 35.9219 51.4992 35.8486C49.91 35.5495 48.3328 35.6093 46.754 35.9292C45.0831 36.268 43.5009 36.8685 41.9295 37.5114C40.1211 38.2519 38.4002 39.1906 36.7981 40.3103C35.6899 41.0821 34.9257 42.0912 34.5631 43.3974C34.5284 43.5213 34.4957 43.6455 34.4622 43.7698C34.4155 43.9423 34.493 44.033 34.6548 44.0843C34.8598 44.1499 35.0302 44.0708 35.2051 43.9832C38.5665 42.3022 42.0531 40.9258 45.6153 39.7422C47.6665 39.0604 49.7651 38.5637 51.9181 38.3225C52.224 38.2882 52.5346 38.2785 52.8394 38.2477C53.1207 38.218 53.1774 38.1504 53.2202 37.8695ZM43.0497 57.2278C42.9109 57.2429 42.7868 57.2448 42.6682 57.2718C42.005 57.4235 41.3383 57.5636 40.6817 57.7403C37.2247 58.6703 33.8965 59.9503 30.6391 61.4302C30.1177 61.6671 29.7806 62.0168 29.5443 62.503C29.3434 62.922 29.2322 63.3785 29.218 63.8432C29.2095 64.0701 29.2565 64.3063 29.312 64.5266C29.4276 64.9754 29.9509 65.2309 30.3443 65.063C30.8634 64.8415 31.4187 64.6999 31.9243 64.4533C33.2976 63.7838 34.6691 63.1073 36.0117 62.3783C38.0679 61.2619 40.0501 60.0217 41.9167 58.6043C42.1722 58.4114 42.4262 58.2119 42.6639 57.9965C42.8732 57.8067 43.0497 57.5844 43.0497 57.2278ZM66.223 73.7147C66.1004 73.7487 66.0715 73.7491 66.0526 73.7633C65.9914 73.8093 65.9316 73.8583 65.8742 73.9096C63.403 76.1188 60.6292 77.87 57.654 79.304C54.1858 80.9745 50.5493 82.1318 46.7721 82.8542C44.1903 83.3474 41.593 83.626 38.9599 83.4597C38.8321 83.4485 38.7033 83.4541 38.5769 83.4763C38.3584 83.521 38.1234 83.543 37.9345 83.7831C38.1126 83.8151 38.2478 83.8456 38.3846 83.8629C42.7949 84.4194 47.1505 84.1361 51.4406 82.9669C55.962 81.7349 60.0485 79.6447 63.7001 76.6965C64.3255 76.1949 64.8712 75.618 65.3956 75.0214C65.6322 74.7512 65.823 74.4425 66.023 74.145C66.0985 74.0319 66.1394 73.898 66.223 73.7147ZM37.9384 36.0662L38.0101 36.148C38.1326 36.0871 38.2544 36.0253 38.3773 35.9655C41.3576 34.5192 44.3984 33.2554 47.7247 32.8483C48.095 32.8027 48.1582 32.6646 48.0176 32.3265C47.7702 31.7334 47.3401 31.3205 46.8072 30.9717C44.8068 29.6623 42.1553 30.0691 40.5707 32.0873C39.7877 33.0848 39.1415 34.1908 38.4382 35.2516C38.2617 35.5152 38.1041 35.793 37.938 36.0651L37.9384 36.0662ZM7.43575 80.1271C7.34443 80.0449 7.32015 80.0113 7.28971 79.9974C6.43886 79.6501 5.56412 79.4063 4.63466 79.4383C4.16684 79.4541 3.71637 79.5567 3.31329 79.8076C2.86205 80.0885 2.77381 80.5597 3.07438 80.9996C3.14859 81.1139 3.24855 81.2091 3.36621 81.2776C3.48388 81.3461 3.61596 81.3859 3.75182 81.394C4.04518 81.4168 4.34018 81.4064 4.63119 81.3627C5.29591 81.2512 5.90977 80.9853 6.50013 80.6681C6.80263 80.5018 7.09626 80.3231 7.43575 80.1271Z" fill="white"/>
</svg>
