<svg width="51" height="78" viewBox="0 0 51 78" fill="none" xmlns="http://www.w3.org/2000/svg">
<path d="M12.4374 30.4197L9.66087 22.0907C8.79062 19.4764 9.22893 16.6029 10.8389 14.3674C12.4489 12.132 15.0343 10.8072 17.7879 10.8066H18.9703C19.968 10.8626 20.8824 11.3812 21.443 12.2089L24.6638 17.5764C24.7964 17.925 25.1305 18.1554 25.5033 18.1554C25.876 18.1554 26.2101 17.925 26.3427 17.5764L29.5635 12.2089C30.1242 11.3812 31.0386 10.8626 32.0362 10.8066H33.2121C35.9662 10.8061 38.5526 12.1305 40.1634 14.3661C41.7741 16.6017 42.2128 19.4758 41.3424 22.0907L38.5692 30.4197M12.4374 30.4197C21.0117 32.6001 29.9948 32.6001 38.5692 30.4197M12.4374 30.4197L1.12231 68.5706C0.669818 70.1824 1.50746 71.8758 3.0626 72.4932C17.6154 77.4225 33.3846 77.4225 47.9374 72.4932C49.4925 71.8758 50.3302 70.1824 49.8777 68.5706L38.5692 30.4197M4.40838 57.4957C17.9709 62.8011 33.0324 62.8011 46.5949 57.4957M15.7006 11.0583V1M35.2994 11.0583V1" stroke="#00518F" stroke-width="2" stroke-linecap="round" stroke-linejoin="round"/>
</svg>
