<svg width="68" height="75" viewBox="0 0 68 75" fill="none" xmlns="http://www.w3.org/2000/svg">
<path d="M29.2857 67.2778C29.2857 70.5347 26.6474 73.175 23.3929 73.175C20.1383 73.175 17.5 70.5347 17.5 67.2778C17.5 64.0209 20.1383 61.3806 23.3929 61.3806C26.6474 61.3806 29.2857 64.0209 29.2857 67.2778ZM29.2857 67.2778L41.0714 43.6892M38.7143 67.2778C38.7143 70.5347 41.3526 73.175 44.6071 73.175C47.8617 73.175 50.5 70.5347 50.5 67.2778C50.5 64.0209 47.8617 61.3806 44.6071 61.3806C41.3526 61.3806 38.7143 64.0209 38.7143 67.2778ZM38.7143 67.2778L26.9286 43.6892M13.5714 19.0846V47.391C13.5714 48.6938 14.6268 49.7499 15.9286 49.7499H23M13.5714 24.5886H3.35714C2.05533 24.5886 1 23.5325 1 22.2298V10.4355C1 5.2244 5.22131 1 10.4286 1H24.5714C24.5714 6.21106 28.7927 10.4355 34 10.4355C39.2073 10.4355 43.4286 6.21106 43.4286 1H57.5714C62.7787 1 67 5.2244 67 10.4355V22.2298C67 23.5325 65.9447 24.5886 64.6429 24.5886H54.4286M45 49.7499H52.0714C53.3732 49.7499 54.4286 48.6938 54.4286 47.391V19.0846M33.9089 18.1348V21.2799M33.9089 30.7154V33.8606" stroke="#00518F" stroke-width="2" stroke-linecap="round" stroke-linejoin="round"/>
</svg>
