<svg width="80" height="80" viewBox="0 0 80 80" fill="none" xmlns="http://www.w3.org/2000/svg">
<path d="M45.0546 7.78258C45.0546 11.5285 42.0202 14.5652 38.277 14.5652M45.0546 7.78258V1H31.4994V7.78258M45.0546 7.78258H78.9428M38.277 14.5652C34.5338 14.5652 31.4994 11.5285 31.4994 7.78258M38.277 14.5652V24.739C26.9394 24.7398 16.7996 31.8005 12.8587 42.4389C8.91778 53.0773 12.0081 65.0462 20.6055 72.4425C29.2028 79.8388 41.4914 81.1003 51.4102 75.6047C61.3291 70.1091 66.7832 59.0173 65.0825 47.7998M31.4994 7.78258H1M38.277 38.3042C40.8861 38.0815 43.3112 36.8681 45.0546 34.9129L56.9155 45.0868L53.5267 51.8694L48.4434 48.4781V68.8258H28.1105V48.4781L23.0273 51.8694L19.6385 45.0868L31.4994 34.9129C33.242 36.8693 35.6675 38.0829 38.277 38.3042ZM38.277 38.3042V48.4781M58.0406 33.2987C59.9126 35.2874 61.4753 37.5464 62.6765 39.9999M47.9419 26.5127C49.2147 27.0011 50.4494 27.5838 51.6357 28.2558" stroke="#00518F" stroke-width="2" stroke-linecap="round" stroke-linejoin="round"/>
</svg>
