<svg width="72" height="73" viewBox="0 0 72 73" fill="none" xmlns="http://www.w3.org/2000/svg">
<path d="M8.6087 40.7921V17.7514C8.6087 2.61118 23.8261 1 36 1C48.1739 1 63.3913 2.61118 63.3913 17.7514V40.789M57.1887 52.7769C53.0241 46.8481 50.5401 39.9022 50 32.6753C49.9353 29.4036 50.4984 26.1498 51.6587 23.0905C52.7401 20.3991 51.7749 17.3179 49.3517 15.726C45.3688 13.1829 40.7237 11.8743 36 11.9645C31.2745 11.872 26.6271 13.1796 22.6422 15.7229C20.219 17.3149 19.2539 20.396 20.3352 23.0874C21.498 26.1473 22.0632 29.4022 22 32.6753C21.4605 39.9023 18.9764 46.8484 14.8113 52.7769M40.0874 58.8683C40.0874 52.6734 42.5983 41.0418 50.4809 37.3383M21.51 37.3383C29.3926 41.0418 31.9035 52.6734 31.9035 58.8683M52.0909 20.5839C44.7826 24.8021 39.1125 31.3671 36 39.2144C32.8829 31.3654 27.2087 24.7996 19.897 20.5808M14.6957 71.0511C14.6957 71.0511 1 68.6968 1 46.6855C1 43.3213 3.72522 40.5941 7.08696 40.5941C10.4487 40.5941 13.1739 43.3213 13.1739 46.6855C13.1739 53.4139 18.6244 58.8683 25.3478 58.8683H46.6522C53.3756 58.8683 58.8261 53.4139 58.8261 46.6855C58.8261 43.3213 61.5513 40.5941 64.913 40.5941C68.2748 40.5941 71 43.3213 71 46.6855C71 68.6968 57.3043 71.0511 57.3043 71.0511H14.6957Z" stroke="#00518F" stroke-width="2" stroke-linecap="round" stroke-linejoin="round"/>
</svg>
