<svg width="70" height="74" viewBox="0 0 70 74" fill="none" xmlns="http://www.w3.org/2000/svg">
<path d="M13.7017 45.9774L8.85781 61.4446C8.50703 62.3791 8.97868 63.4214 9.9119 63.774C15.946 66.4658 22.3932 68.1123 28.9784 68.6431M51.8717 33.5726C49.0093 28.9325 50.0572 23.5932 51.9366 18.7024L56.3292 7.29381C56.6475 6.44651 56.2841 5.49474 55.4822 5.07581L50.085 1.7751C48.9925 1.12229 47.5982 1.28466 46.6847 2.17106C46.4951 2.37419 46.3536 2.61734 46.2705 2.88255C45.4822 5.976 40.3138 8.10429 35.0031 7.97746C30.5654 8.23518 26.3624 5.96395 24.1437 2.10919C23.3971 1.08748 22.0426 0.720017 20.8825 1.22446C20.7561 1.27636 20.6341 1.33843 20.5178 1.41007L14.5271 5.07581C13.7217 5.49159 13.3539 6.44416 13.6708 7.29381L18.0634 18.7024C19.9428 23.5963 20.9907 28.9263 18.1283 33.5757M41.0155 68.6554C47.6039 68.1217 54.0534 66.4699 60.0881 63.7709C61.0209 63.4196 61.4928 62.3783 61.1422 61.4446L56.2983 45.9774M35 22.7332V28.9201M35 7.97746V13.391M35 56.6962V50.5093M35 72.1634V65.9765M53.544 39.6853H47.3617M69 39.6853H62.8176M16.4498 39.6853H22.6322M1 39.6853H7.1762M31.136 39.6853C31.136 41.8209 32.866 43.5521 35 43.5521C37.134 43.5521 38.864 41.8209 38.864 39.6853C38.864 37.5497 37.134 35.8185 35 35.8185C32.866 35.8185 31.136 37.5497 31.136 39.6853Z" stroke="#00518F" stroke-width="2" stroke-linecap="round" stroke-linejoin="round"/>
</svg>
