<svg width="77" height="78" viewBox="0 0 77 78" fill="none" xmlns="http://www.w3.org/2000/svg">
<path d="M3.55682 6.11737H10.9876M3.55682 6.11737C3.55682 6.82394 2.98446 7.39671 2.27841 7.39671C1.57235 7.39671 1 6.82394 1 6.11737C1 5.4108 1.57235 4.83803 2.27841 4.83803C2.98446 4.83803 3.55682 5.4108 3.55682 6.11737ZM38.5 1V76.0548M24.7571 1V16.4587M10.9876 1V63.3681M52.2697 1V16.4587M73.4432 6.11737H66.0124M73.4432 6.11737C73.4432 6.82394 74.0156 7.39671 74.7216 7.39671C75.4276 7.39671 76 6.82394 76 6.11737C76 5.4108 75.4276 4.83803 74.7216 4.83803C74.0156 4.83803 73.4432 5.4108 73.4432 6.11737ZM62.6033 1C64.4861 1 66.0124 2.52743 66.0124 4.41158V69.2316C66.0124 73 62.9599 76.0548 59.1942 76.0548H17.8058C14.0402 76.0548 10.9876 73 10.9876 69.2316V4.41158C10.9876 2.52743 12.5139 1 14.3967 1H62.6033Z" stroke="#00518F" stroke-width="2" stroke-linecap="round" stroke-linejoin="round"/>
</svg>
