<svg width="36" height="36" viewBox="0 0 36 36" fill="none" xmlns="http://www.w3.org/2000/svg">
<path d="M18.7761 8.22076V6.59174C20.5873 6.67877 22.3686 7.17373 23.9596 8.04399C24.3757 8.27243 24.8978 8.11741 25.1263 7.70132C25.3547 7.28523 25.1997 6.76307 24.7836 6.53463C22.7738 5.43593 20.4976 4.85394 18.2023 4.85394C10.6201 4.85394 4.44946 11.0246 4.44946 18.6068C4.44946 26.1889 10.6201 32.3596 18.2023 32.3596C25.7844 32.3596 31.9551 26.1889 31.9551 18.6068C31.9551 16.3114 31.3731 14.0352 30.2744 12.0254C30.0459 11.6066 29.5238 11.4543 29.1077 11.6828C28.6916 11.9112 28.5366 12.4334 28.765 12.8494C29.6353 14.4404 30.1303 16.2217 30.2173 18.0329H28.5883V19.1806H30.2064C30.0704 22.066 28.9173 24.6822 27.0925 26.6866L25.9503 25.5443L25.1399 26.3548L26.2821 27.497C24.2778 29.3218 21.6615 30.4749 18.7761 30.6109V28.9927H17.6284V30.6109C14.743 30.4749 12.1268 29.3218 10.1225 27.497L11.2647 26.3548L10.4542 25.5443L9.31203 26.6866C7.48721 24.6822 6.33412 22.066 6.19814 19.1806H7.81628V18.0329H6.19814C6.33412 15.1475 7.48721 12.5313 9.31203 10.5269L10.4542 11.6692L11.2647 10.8587L10.1225 9.71651C12.1268 7.89169 14.743 6.7386 17.6284 6.60262V8.22076H18.7761Z" fill="white"/>
<path d="M12.8021 13.5117C12.4653 13.1815 11.9178 13.1815 11.5784 13.5117C11.2416 13.8445 11.2416 14.3815 11.5784 14.7117L16.8483 19.8768C17.0153 20.0432 17.2371 20.1264 17.4588 20.1264C17.6806 20.1264 17.9023 20.0432 18.0693 19.8768L31.9136 6.30361C32.253 5.97072 32.253 5.43381 31.9136 5.10361C31.5768 4.77072 31.0293 4.77072 30.6898 5.10361L17.4588 18.0781L12.8021 13.5117Z" fill="white"/>
<path opacity="0.8" d="M32.6137 9.64227C32.3623 9.23778 31.8294 9.11479 31.4249 9.36624C31.0204 9.62041 30.8974 10.1534 31.1488 10.5579C32.6629 12.9848 33.4637 15.7671 33.4637 18.6067C33.4637 27.0219 26.6174 33.8682 18.2023 33.8682C9.78714 33.8682 2.9408 27.0219 2.9408 18.6067C2.9408 10.1916 9.78714 3.34528 18.2023 3.34528C21.0419 3.34528 23.8242 4.14607 26.2512 5.66019C26.6557 5.91163 27.1886 5.78865 27.4428 5.38415C27.6942 4.97966 27.5712 4.44671 27.1667 4.19253C24.4637 2.50896 21.3644 1.61798 18.2023 1.61798C8.83603 1.61798 1.2135 9.24051 1.2135 18.6067C1.2135 27.973 8.83603 35.5955 18.2023 35.5955C27.5685 35.5955 35.191 27.973 35.191 18.6067C35.191 15.4446 34.3 12.3425 32.6137 9.64227Z" fill="#00518F"/>
</svg>
