<svg width="28" height="28" viewBox="0 0 28 28" fill="none" xmlns="http://www.w3.org/2000/svg">
<path d="M11.8479 13.9973C11.8458 15.1862 12.8085 16.1521 13.9974 16.1532C15.1862 16.1532 16.1511 15.1894 16.1533 14.0027C16.1554 12.8117 15.1916 11.8478 14.0038 11.8478C12.8128 11.8457 11.8479 12.8063 11.8479 13.9973Z" fill="white"/>
<path d="M14.6166 14.5799C14.6166 14.5799 14.6176 14.5778 14.6176 14.5756C15.0376 14.1556 15.8033 12.7288 15.393 12.3648C15.393 12.3648 3.96729 3.24682 3.62376 3.59034C3.28024 3.93387 12.3637 15.393 12.3637 15.393C12.731 15.8011 14.1977 14.9977 14.6166 14.5799Z" fill="white"/>
<path d="M13.9994 4.30968C15.1895 4.30968 16.1543 3.34493 16.1543 2.15484C16.1543 0.964755 15.1895 0 13.9994 0C12.8094 0 11.8446 0.964755 11.8446 2.15484C11.8446 3.34493 12.8094 4.30968 13.9994 4.30968Z" fill="white"/>
<path d="M18.6171 1.93624C17.8762 3.17896 19.0436 3.94032 19.3957 4.13308C22.8891 6.04562 25.268 9.74363 25.268 14.0005C25.268 20.2142 20.2141 25.268 14.0005 25.268C7.78693 25.268 2.73097 20.2142 2.73097 14.0005C2.73097 12.5726 3.00342 11.2071 3.49233 9.95147C3.55694 9.78886 4.16969 8.70767 2.96896 7.9517C2.14622 7.4348 1.34072 8.01847 1.17919 8.38676C0.422138 10.1055 0 12.0029 0 14.0005C0 21.7326 6.26745 28 13.9995 28C21.7315 28 27.9989 21.7326 27.9989 14.0005C27.9989 8.49445 24.8124 3.74002 20.1883 1.45918C20.0914 1.41072 19.134 1.0672 18.6171 1.93624Z" fill="white"/>
</svg>
