<svg width="45" height="72" viewBox="0 0 45 72" fill="none" xmlns="http://www.w3.org/2000/svg">
<path d="M16.2184 64.3713V67.9565C16.2184 69.6374 14.8558 71 13.1749 71H7.08799C5.40712 71 4.04451 69.6374 4.04451 67.9565V64.5113M40.5662 64.5113V67.9565C40.5662 69.6374 39.2036 71 37.5228 71H31.4358C29.7549 71 28.3923 69.6374 28.3923 67.9565V64.3713M17.7371 13.1739L22.3023 7.08696L26.8675 13.1739M1.07712 7.08696H43.5275M10.028 7.08696C10.028 7.33957 10.0493 7.59218 10.0493 7.84783C10.0493 13.9104 6.22364 18.8713 1.39364 19.2396M34.5767 7.08696C34.5767 7.33957 34.5584 7.59218 34.5584 7.84783C34.5584 13.9104 38.381 18.8713 43.211 19.2396M39.0445 64.9131C40.6915 64.9137 42.0402 63.6041 42.088 61.9578L43.6097 4.13174C43.6336 3.30938 43.3235 2.51239 42.7501 1.92239C42.1768 1.33239 41.389 0.999653 40.5662 1H4.04451C3.22343 0.999724 2.43707 1.33121 1.86398 1.91921C1.29089 2.5072 0.979683 3.3018 1.00103 4.12261L2.52277 61.9487C2.57053 63.595 3.91925 64.9046 5.56625 64.9039H14.4836C16.1102 64.9057 17.4507 63.6282 17.5271 62.0035L19.0458 29.913C19.342 28.3481 20.7096 27.2151 22.3023 27.2151C23.8951 27.2151 25.2626 28.3481 25.5589 29.913L27.0806 62.0126C27.157 63.6374 28.4975 64.9148 30.1241 64.9131H39.0445Z" stroke="#00518F" stroke-width="2" stroke-linecap="round" stroke-linejoin="round"/>
</svg>
