<svg width="73" height="73" viewBox="0 0 73 73" fill="none" xmlns="http://www.w3.org/2000/svg">
<path d="M49.1489 4.27975L62.2985 8.66297M62.2985 8.66297L54.6356 30.1193M62.2985 8.66297C66.5591 27.0541 70.36 56.1734 71.4941 62.549C71.6292 63.2837 71.2148 64.0089 70.5132 64.2655L63.8311 66.595C63.4323 66.7787 62.9732 66.7787 62.5744 66.595C62.1805 66.3746 61.9011 65.9946 61.8081 65.5529L54.6356 30.1193M54.6356 30.1193L57.7007 69.9667C57.7266 70.3699 57.5821 70.7654 57.3023 71.0568C57.0226 71.3482 56.6333 71.5087 56.2295 71.4993H43.9687C43.0158 71.4441 42.1233 71.0144 41.4859 70.3039L36.2444 63.8364M36.2444 63.8364L31.0643 70.3039C30.4228 71.009 29.5327 71.4376 28.5815 71.4993H16.3207C15.9091 71.5169 15.509 71.361 15.2177 71.0697C14.9264 70.7784 14.7706 70.3783 14.7881 69.9667L17.8533 30.1193M36.2444 63.8364V45.4452M17.8533 30.1193L10.1903 8.66297M17.8533 30.1193L10.6808 65.5529C10.5878 65.9946 10.3084 66.3746 9.91447 66.595C9.5157 66.7787 9.05652 66.7787 8.65774 66.595L2.00629 64.2655C1.30467 64.0089 0.890318 63.2837 1.02543 62.549C2.12889 56.1734 5.92973 27.0541 10.1903 8.66297M10.1903 8.66297L23.34 4.27975M36.2444 45.4452C40.8422 30.1193 41.3633 13.2608 42.3748 1M36.2444 45.4452C31.6467 30.1193 31.1256 13.2608 30.1141 1M36.2444 45.4452C45.1335 41.0007 46.9113 26.8089 51.0493 18.6555C51.3224 18.1702 51.3224 17.5775 51.0493 17.0922L48.5052 13.2608L51.9995 10.9312C52.649 10.4906 52.8607 9.63057 52.4899 8.93884C50.2523 4.67823 46.5741 1 42.3748 1M36.2444 45.4452C27.3247 41.0007 25.5776 26.8089 21.3476 18.6555C21.0551 18.1755 21.0551 17.5723 21.3476 17.0922L23.9837 13.2608L20.4894 10.9312C19.8399 10.4906 19.6282 9.63057 19.9989 8.93884C22.2059 4.67823 25.9148 1 30.1141 1M42.3748 1H30.1141M22.4511 56.1734H27.0489M45.44 56.1734H50.0378" stroke="#00518F" stroke-width="2" stroke-linecap="round" stroke-linejoin="round"/>
</svg>
