<svg width="51" height="72" viewBox="0 0 51 72" fill="none" xmlns="http://www.w3.org/2000/svg">
<path d="M25.1589 54.2609V71M25.1589 54.2609C25.1589 54.2609 17.885 64.4261 1.93714 57.7913C1.27761 57.5168 0.897813 56.8205 1.02409 56.1174C4.43279 35.0565 4.18931 23.3391 18.7067 18.7435C15.1458 9.27826 9.33279 1 19.0719 1C21.313 1.51897 23.3991 2.562 25.1589 4.04348C26.9225 2.56777 29.0071 1.52547 31.2458 1C41.0154 1 35.2024 9.27826 31.611 18.7435C46.4632 23.4609 46.0676 36 49.2937 56.0565C49.4151 56.7839 49.008 57.4962 48.3197 57.7609C40.555 61.0381 31.6085 59.6861 25.1589 54.2609ZM19.0719 71H31.2458M1.78496 51.2174C3.24583 51.2174 18.585 53.1956 25.1589 40.5652C29.0545 48.0217 39.5545 50.9739 48.5632 51.4" stroke="#00518F" stroke-width="2" stroke-linecap="round" stroke-linejoin="round"/>
</svg>
