<svg width="72" height="72" viewBox="0 0 72 72" fill="none" xmlns="http://www.w3.org/2000/svg">
<path d="M13.1791 13.1606H58.8269M13.1791 13.1606L13.1639 2.84159C13.1656 1.8252 13.9889 1.00168 15.005 1H56.9858C57.996 1.00162 58.8169 1.81593 58.8269 2.82637V13.1606M13.1791 13.1606L1.03682 66.3444C0.90247 66.9447 1.14264 67.5669 1.64545 67.9211C4.12882 69.7786 7.11152 70.8494 10.209 70.9955C15.5434 71.1283 20.5109 68.2898 23.106 63.6261C25.7011 68.2898 30.6687 71.1283 36.003 70.9955C41.3369 71.1262 46.3035 68.2883 48.9001 63.6261M58.8269 13.1606L70.9632 66.3444C71.0975 66.9447 70.8574 67.5669 70.3545 67.9211C67.872 69.778 64.8905 70.8488 61.7941 70.9955C56.4604 71.1285 51.4936 68.2898 48.9001 63.6261M23.103 63.6261L26.8704 13.1606M48.9001 63.6261L45.1296 13.1606" stroke="#00518F" stroke-width="2" stroke-linecap="round" stroke-linejoin="round"/>
</svg>
