<svg width="72" height="72" viewBox="0 0 72 72" fill="none" xmlns="http://www.w3.org/2000/svg">
<path d="M11.6522 7.08648C2.95696 23.0179 1 43.6419 1 63.3865M11.6522 7.08648C15.8449 4.77601 20.2005 2.77434 24.6843 1.09738C25.0937 0.94659 25.5481 0.978728 25.9322 1.18564C29.0047 2.94534 32.4611 3.92641 36 4.04324C39.5368 3.92542 42.9911 2.94438 46.0617 1.18564C46.4458 0.978728 46.9002 0.94659 47.3096 1.09738C51.7957 2.77352 56.1534 4.77521 60.3478 7.08648M11.6522 7.08648C13.7157 7.69513 16.2174 14.6946 17.7391 26.8676M1 63.3865H10.1304M1 63.3865V69.4729C1 70.3133 1.68131 70.9946 2.52174 70.9946H8.6087C9.44913 70.9946 10.1304 70.3133 10.1304 69.4729V63.3865M10.1304 63.3865L17.7391 26.8676M17.7391 26.8676V66.8862C17.7318 67.524 18.123 68.0986 18.7191 68.3256C24.2895 70.1758 30.1309 71.078 36 70.9946C41.8689 71.079 47.7103 70.1778 53.2809 68.3287C53.878 68.1013 54.2695 67.5251 54.2609 66.8862V26.8676M60.3478 7.08648C69.04 23.0209 71 43.645 71 63.3865M60.3478 7.08648C58.2844 7.69513 55.7826 14.6946 54.2609 26.8676M71 63.3865H61.8696M71 63.3865V69.4729C71 70.3133 70.3187 70.9946 69.4783 70.9946H63.3913C62.5509 70.9946 61.8696 70.3133 61.8696 69.4729V63.3865M61.8696 63.3865L54.2609 26.8676M54.2609 61.8648C48.3651 63.8061 42.2067 64.8324 36 64.9081C29.7933 64.8324 23.6349 63.8061 17.7391 61.8648M32.9535 10.1267H39.0404M35.997 43.6084V70.9915M46.6522 1C45.4713 13.1182 42.087 34.4757 36 43.6054C29.913 34.4757 26.5317 13.1243 25.3478 1" stroke="#00518F" stroke-width="2" stroke-linecap="round" stroke-linejoin="round"/>
</svg>
