<svg width="85" height="72" viewBox="0 0 85 72" fill="none" xmlns="http://www.w3.org/2000/svg">
<path d="M22.615 34.9663H62.2521M22.615 49.3798H62.2521M42.4336 71H60.4504C61.4454 71 62.2521 70.1934 62.2521 69.1983V23.2554C62.2752 22.7589 62.6565 22.3533 63.1505 22.2994C63.6446 22.2455 64.1043 22.5594 64.2339 23.0392L71.4407 51.5778C71.585 52.0837 71.9392 52.5035 72.4136 52.7309C72.8871 52.9808 73.4535 52.9808 73.927 52.7309L82.7192 49.6681C83.5163 49.3084 83.9301 48.4196 83.6921 47.5781L76.0169 13.9947C75.2546 10.4827 72.7967 7.57924 69.4588 6.24748L56.847 1.1307C56.2049 0.883072 55.4778 1.0229 54.9733 1.49104C51.5375 4.61429 47.0764 6.37051 42.4336 6.42765C37.8032 6.36174 33.3564 4.60611 29.9299 1.49104C29.4182 1.00844 28.6725 0.867732 28.0201 1.1307L15.4083 6.17541C12.0843 7.5168 9.64136 10.4186 8.88621 13.9227L1.0669 47.5781C0.828924 48.4196 1.24272 49.3084 2.03981 49.6681L10.832 52.7309C11.3056 52.9808 11.8719 52.9808 12.3454 52.7309C12.8198 52.5035 13.174 52.0837 13.3184 51.5778L20.8134 23.0392C20.943 22.5594 21.4027 22.2455 21.8968 22.2994C22.3908 22.3533 22.7721 22.7589 22.7952 23.2554V69.1983C22.7952 70.1934 23.6018 71 24.5969 71H42.4336Z" stroke="#00518F" stroke-width="2"/>
</svg>
