<svg width="57" height="72" viewBox="0 0 57 72" fill="none" xmlns="http://www.w3.org/2000/svg">
<path d="M8.33333 58.8261V51.2174C8.33333 41.9726 17.3623 34.4783 28.5 34.4783M8.33333 58.8261C4.28324 58.8261 1 61.5513 1 64.913C1 68.2748 4.28324 71 8.33333 71H48.6667C52.7168 71 56 68.2748 56 64.913C56 61.5513 52.7168 58.8261 48.6667 58.8261M8.33333 58.8261H48.6667M28.5 34.4783C39.6377 34.4783 48.6667 41.9726 48.6667 51.2174V58.8261M28.5 34.4783V28.3913C37.6127 28.3913 45 22.2596 45 14.6957C45 7.13175 37.6127 1 28.5 1C19.3873 1 12 7.13175 12 14.6957V19.2609" stroke="#00518F" stroke-width="2" stroke-linecap="round" stroke-linejoin="round"/>
</svg>
