<svg width="262" height="40" viewBox="0 0 262 40" fill="none" xmlns="http://www.w3.org/2000/svg">
<path d="M0.76 31V3H13C16.04 3 18.7067 3.58667 21 4.76C23.2933 5.93333 25.08 7.56 26.36 9.64C27.64 11.72 28.28 14.1733 28.28 17C28.28 19.8 27.64 22.2533 26.36 24.36C25.08 26.44 23.2933 28.0667 21 29.24C18.7067 30.4133 16.04 31 13 31H0.76ZM5.96 26.6H12.76C14.8667 26.6 16.68 26.2 18.2 25.4C19.7467 24.6 20.9333 23.48 21.76 22.04C22.6133 20.6 23.04 18.92 23.04 17C23.04 15.0533 22.6133 13.3733 21.76 11.96C20.9333 10.52 19.7467 9.4 18.2 8.6C16.68 7.8 14.8667 7.4 12.76 7.4H5.96V26.6ZM33.3269 31V9.64H38.0869V15.52L37.5269 13.8C38.1669 12.36 39.1669 11.2667 40.5269 10.52C41.9135 9.77333 43.6335 9.4 45.6869 9.4V14.16C45.4735 14.1067 45.2735 14.08 45.0869 14.08C44.9002 14.0533 44.7135 14.04 44.5269 14.04C42.6335 14.04 41.1269 14.6 40.0069 15.72C38.8869 16.8133 38.3269 18.4533 38.3269 20.64V31H33.3269ZM52.4697 39.04C51.4297 39.04 50.3897 38.8667 49.3497 38.52C48.3097 38.1733 47.443 37.6933 46.7497 37.08L48.7497 33.4C49.2564 33.8533 49.8297 34.2133 50.4697 34.48C51.1097 34.7467 51.763 34.88 52.4297 34.88C53.3364 34.88 54.0697 34.6533 54.6297 34.2C55.1897 33.7467 55.7097 32.9867 56.1897 31.92L57.4297 29.12L57.8297 28.52L65.9097 9.64H70.7097L60.7097 32.72C60.043 34.32 59.2964 35.5867 58.4697 36.52C57.6697 37.4533 56.763 38.1067 55.7497 38.48C54.763 38.8533 53.6697 39.04 52.4697 39.04ZM56.8697 31.76L47.2297 9.64H52.4297L60.2697 28.08L56.8697 31.76ZM98.3294 31.4C96.196 31.4 94.2094 31.0533 92.3694 30.36C90.556 29.64 88.9694 28.64 87.6094 27.36C86.276 26.0533 85.236 24.52 84.4894 22.76C83.7427 21 83.3694 19.08 83.3694 17C83.3694 14.92 83.7427 13 84.4894 11.24C85.236 9.48 86.2894 7.96 87.6494 6.68C89.0094 5.37333 90.596 4.37333 92.4094 3.68C94.2227 2.96 96.2094 2.6 98.3694 2.6C100.663 2.6 102.756 3 104.649 3.8C106.543 4.57333 108.143 5.73333 109.449 7.28L106.089 10.44C105.076 9.34667 103.943 8.53333 102.689 8C101.436 7.44 100.076 7.16 98.6094 7.16C97.1427 7.16 95.796 7.4 94.5694 7.88C93.3694 8.36 92.316 9.04 91.4094 9.92C90.5294 10.8 89.836 11.84 89.3294 13.04C88.8494 14.24 88.6094 15.56 88.6094 17C88.6094 18.44 88.8494 19.76 89.3294 20.96C89.836 22.16 90.5294 23.2 91.4094 24.08C92.316 24.96 93.3694 25.64 94.5694 26.12C95.796 26.6 97.1427 26.84 98.6094 26.84C100.076 26.84 101.436 26.5733 102.689 26.04C103.943 25.48 105.076 24.64 106.089 23.52L109.449 26.72C108.143 28.24 106.543 29.4 104.649 30.2C102.756 31 100.649 31.4 98.3294 31.4ZM113.952 31V1.32H118.952V31H113.952ZM135.554 31.28C133.181 31.28 131.101 30.8133 129.314 29.88C127.554 28.92 126.181 27.6133 125.194 25.96C124.234 24.3067 123.754 22.4267 123.754 20.32C123.754 18.1867 124.221 16.3067 125.154 14.68C126.114 13.0267 127.421 11.7333 129.074 10.8C130.754 9.86667 132.661 9.4 134.794 9.4C136.874 9.4 138.728 9.85333 140.354 10.76C141.981 11.6667 143.261 12.9467 144.194 14.6C145.128 16.2533 145.594 18.2 145.594 20.44C145.594 20.6533 145.581 20.8933 145.554 21.16C145.554 21.4267 145.541 21.68 145.514 21.92H127.714V18.6H142.874L140.914 19.64C140.941 18.4133 140.688 17.3333 140.154 16.4C139.621 15.4667 138.888 14.7333 137.954 14.2C137.048 13.6667 135.994 13.4 134.794 13.4C133.568 13.4 132.488 13.6667 131.554 14.2C130.648 14.7333 129.928 15.48 129.394 16.44C128.888 17.3733 128.634 18.48 128.634 19.76V20.56C128.634 21.84 128.928 22.9733 129.514 23.96C130.101 24.9467 130.928 25.7067 131.994 26.24C133.061 26.7733 134.288 27.04 135.674 27.04C136.874 27.04 137.954 26.8533 138.914 26.48C139.874 26.1067 140.728 25.52 141.474 24.72L144.154 27.8C143.194 28.92 141.981 29.7867 140.514 30.4C139.074 30.9867 137.421 31.28 135.554 31.28ZM162.971 31V26.68L162.691 25.76V18.2C162.691 16.7333 162.251 15.6 161.371 14.8C160.491 13.9733 159.158 13.56 157.371 13.56C156.171 13.56 154.985 13.7467 153.811 14.12C152.665 14.4933 151.691 15.0133 150.891 15.68L148.931 12.04C150.078 11.16 151.438 10.5067 153.011 10.08C154.611 9.62667 156.265 9.4 157.971 9.4C161.065 9.4 163.451 10.1467 165.131 11.64C166.838 13.1067 167.691 15.3867 167.691 18.48V31H162.971ZM156.251 31.28C154.651 31.28 153.251 31.0133 152.051 30.48C150.851 29.92 149.918 29.16 149.251 28.2C148.611 27.2133 148.291 26.1067 148.291 24.88C148.291 23.68 148.571 22.6 149.131 21.64C149.718 20.68 150.665 19.92 151.971 19.36C153.278 18.8 155.011 18.52 157.171 18.52H163.371V21.84H157.531C155.825 21.84 154.678 22.12 154.091 22.68C153.505 23.2133 153.211 23.88 153.211 24.68C153.211 25.5867 153.571 26.3067 154.291 26.84C155.011 27.3733 156.011 27.64 157.291 27.64C158.518 27.64 159.611 27.36 160.571 26.8C161.558 26.24 162.265 25.4133 162.691 24.32L163.531 27.32C163.051 28.5733 162.185 29.5467 160.931 30.24C159.705 30.9333 158.145 31.28 156.251 31.28ZM186.228 9.4C187.935 9.4 189.455 9.73333 190.788 10.4C192.148 11.0667 193.215 12.0933 193.988 13.48C194.761 14.84 195.148 16.6 195.148 18.76V31H190.148V19.4C190.148 17.5067 189.695 16.0933 188.788 15.16C187.908 14.2267 186.668 13.76 185.068 13.76C183.895 13.76 182.855 14 181.948 14.48C181.041 14.96 180.335 15.68 179.828 16.64C179.348 17.5733 179.108 18.76 179.108 20.2V31H174.108V9.64H178.868V15.4L178.028 13.64C178.775 12.28 179.855 11.24 181.268 10.52C182.708 9.77333 184.361 9.4 186.228 9.4ZM201.491 31V9.64H206.491V31H201.491ZM204.011 6.12C203.078 6.12 202.304 5.82666 201.691 5.24C201.104 4.65333 200.811 3.94667 200.811 3.12C200.811 2.26667 201.104 1.56 201.691 0.999998C202.304 0.413332 203.078 0.119999 204.011 0.119999C204.944 0.119999 205.704 0.399999 206.291 0.959998C206.904 1.49333 207.211 2.17333 207.211 3C207.211 3.88 206.918 4.62666 206.331 5.24C205.744 5.82666 204.971 6.12 204.011 6.12ZM225.173 9.4C226.88 9.4 228.4 9.73333 229.733 10.4C231.093 11.0667 232.16 12.0933 232.933 13.48C233.707 14.84 234.093 16.6 234.093 18.76V31H229.093V19.4C229.093 17.5067 228.64 16.0933 227.733 15.16C226.853 14.2267 225.613 13.76 224.013 13.76C222.84 13.76 221.8 14 220.893 14.48C219.987 14.96 219.28 15.68 218.773 16.64C218.293 17.5733 218.053 18.76 218.053 20.2V31H213.053V9.64H217.813V15.4L216.973 13.64C217.72 12.28 218.8 11.24 220.213 10.52C221.653 9.77333 223.307 9.4 225.173 9.4ZM250.155 39.04C248.182 39.04 246.249 38.7733 244.355 38.24C242.489 37.7333 240.955 36.9867 239.755 36L241.995 32.24C242.929 33.0133 244.102 33.6267 245.515 34.08C246.955 34.56 248.409 34.8 249.875 34.8C252.222 34.8 253.942 34.2533 255.035 33.16C256.129 32.0933 256.675 30.48 256.675 28.32V24.52L257.075 19.68L256.915 14.84V9.64H261.675V27.76C261.675 31.6267 260.689 34.4667 258.715 36.28C256.742 38.12 253.889 39.04 250.155 39.04ZM249.515 30.04C247.489 30.04 245.649 29.6133 243.995 28.76C242.369 27.88 241.075 26.6667 240.115 25.12C239.182 23.5733 238.715 21.76 238.715 19.68C238.715 17.6267 239.182 15.8267 240.115 14.28C241.075 12.7333 242.369 11.5333 243.995 10.68C245.649 9.82667 247.489 9.4 249.515 9.4C251.329 9.4 252.955 9.76 254.395 10.48C255.835 11.2 256.982 12.32 257.835 13.84C258.715 15.36 259.155 17.3067 259.155 19.68C259.155 22.0533 258.715 24.0133 257.835 25.56C256.982 27.08 255.835 28.2133 254.395 28.96C252.955 29.68 251.329 30.04 249.515 30.04ZM250.275 25.8C251.529 25.8 252.649 25.5467 253.635 25.04C254.622 24.5067 255.382 23.7867 255.915 22.88C256.475 21.9467 256.755 20.88 256.755 19.68C256.755 18.48 256.475 17.4267 255.915 16.52C255.382 15.5867 254.622 14.88 253.635 14.4C252.649 13.8933 251.529 13.64 250.275 13.64C249.022 13.64 247.889 13.8933 246.875 14.4C245.889 14.88 245.115 15.5867 244.555 16.52C244.022 17.4267 243.755 18.48 243.755 19.68C243.755 20.88 244.022 21.9467 244.555 22.88C245.115 23.7867 245.889 24.5067 246.875 25.04C247.889 25.5467 249.022 25.8 250.275 25.8Z" fill="#00518F"/>
</svg>
