<svg width="154" height="16" viewBox="0 0 154 16" fill="none" xmlns="http://www.w3.org/2000/svg">
<path d="M3.64 6.64H10.38V9.16H3.64V6.64ZM3.88 12.4H11.5V15H0.66V0.999999H11.24V3.6H3.88V12.4ZM20.778 15.24C19.698 15.24 18.6913 15.0667 17.758 14.72C16.838 14.36 16.038 13.8533 15.358 13.2C14.678 12.5467 14.1446 11.78 13.758 10.9C13.3846 10.02 13.198 9.05333 13.198 8C13.198 6.94667 13.3846 5.98 13.758 5.1C14.1446 4.22 14.678 3.45333 15.358 2.8C16.0513 2.14667 16.858 1.64667 17.778 1.3C18.698 0.939999 19.7046 0.76 20.798 0.76C22.0113 0.76 23.1046 0.973333 24.078 1.4C25.0646 1.81333 25.8913 2.42667 26.558 3.24L24.478 5.16C23.998 4.61333 23.4646 4.20667 22.878 3.94C22.2913 3.66 21.6513 3.52 20.958 3.52C20.3046 3.52 19.7046 3.62667 19.158 3.84C18.6113 4.05333 18.138 4.36 17.738 4.76C17.338 5.16 17.0246 5.63333 16.798 6.18C16.5846 6.72667 16.478 7.33333 16.478 8C16.478 8.66667 16.5846 9.27333 16.798 9.82C17.0246 10.3667 17.338 10.84 17.738 11.24C18.138 11.64 18.6113 11.9467 19.158 12.16C19.7046 12.3733 20.3046 12.48 20.958 12.48C21.6513 12.48 22.2913 12.3467 22.878 12.08C23.4646 11.8 23.998 11.38 24.478 10.82L26.558 12.74C25.8913 13.5533 25.0646 14.1733 24.078 14.6C23.1046 15.0267 22.0046 15.24 20.778 15.24ZM35.253 15.24C34.1463 15.24 33.1196 15.06 32.173 14.7C31.2396 14.34 30.4263 13.8333 29.733 13.18C29.053 12.5267 28.5196 11.76 28.133 10.88C27.7596 10 27.573 9.04 27.573 8C27.573 6.96 27.7596 6 28.133 5.12C28.5196 4.24 29.0596 3.47333 29.753 2.82C30.4463 2.16667 31.2596 1.66 32.193 1.3C33.1263 0.939999 34.1396 0.76 35.233 0.76C36.3396 0.76 37.353 0.939999 38.273 1.3C39.2063 1.66 40.013 2.16667 40.693 2.82C41.3863 3.47333 41.9263 4.24 42.313 5.12C42.6996 5.98667 42.893 6.94667 42.893 8C42.893 9.04 42.6996 10.0067 42.313 10.9C41.9263 11.78 41.3863 12.5467 40.693 13.2C40.013 13.84 39.2063 14.34 38.273 14.7C37.353 15.06 36.3463 15.24 35.253 15.24ZM35.233 12.48C35.8596 12.48 36.433 12.3733 36.953 12.16C37.4863 11.9467 37.953 11.64 38.353 11.24C38.753 10.84 39.0596 10.3667 39.273 9.82C39.4996 9.27333 39.613 8.66667 39.613 8C39.613 7.33333 39.4996 6.72667 39.273 6.18C39.0596 5.63333 38.753 5.16 38.353 4.76C37.9663 4.36 37.5063 4.05333 36.973 3.84C36.4396 3.62667 35.8596 3.52 35.233 3.52C34.6063 3.52 34.0263 3.62667 33.493 3.84C32.973 4.05333 32.513 4.36 32.113 4.76C31.713 5.16 31.3996 5.63333 31.173 6.18C30.9596 6.72667 30.853 7.33333 30.853 8C30.853 8.65333 30.9596 9.26 31.173 9.82C31.3996 10.3667 31.7063 10.84 32.093 11.24C32.493 11.64 32.9596 11.9467 33.493 12.16C34.0263 12.3733 34.6063 12.48 35.233 12.48ZM53.992 7.3H60.712V9.9H53.992V7.3ZM54.232 15H50.992V0.999999H61.572V3.6H54.232V15ZM63.7655 15V0.999999H69.8255C71.0788 0.999999 72.1588 1.20667 73.0655 1.62C73.9721 2.02 74.6721 2.6 75.1655 3.36C75.6588 4.12 75.9055 5.02667 75.9055 6.08C75.9055 7.12 75.6588 8.02 75.1655 8.78C74.6721 9.52667 73.9721 10.1 73.0655 10.5C72.1588 10.9 71.0788 11.1 69.8255 11.1H65.5655L67.0055 9.68V15H63.7655ZM72.6655 15L69.1655 9.92H72.6255L76.1655 15H72.6655ZM67.0055 10.04L65.5655 8.52H69.6455C70.6455 8.52 71.3921 8.30667 71.8855 7.88C72.3788 7.44 72.6255 6.84 72.6255 6.08C72.6255 5.30667 72.3788 4.70667 71.8855 4.28C71.3921 3.85333 70.6455 3.64 69.6455 3.64H65.5655L67.0055 2.1V10.04ZM78.4725 15V0.999999H81.7125V15H78.4725ZM88.015 6.64H94.755V9.16H88.015V6.64ZM88.255 12.4H95.875V15H85.035V0.999999H95.615V3.6H88.255V12.4ZM98.453 15V0.999999H101.133L109.393 11.08H108.093V0.999999H111.293V15H108.633L100.353 4.92H101.653V15H98.453ZM114.605 15V0.999999H120.965C122.485 0.999999 123.825 1.29333 124.985 1.88C126.145 2.45333 127.052 3.26 127.705 4.3C128.359 5.34 128.685 6.57333 128.685 8C128.685 9.41333 128.359 10.6467 127.705 11.7C127.052 12.74 126.145 13.5533 124.985 14.14C123.825 14.7133 122.485 15 120.965 15H114.605ZM117.845 12.34H120.805C121.739 12.34 122.545 12.1667 123.225 11.82C123.919 11.46 124.452 10.9533 124.825 10.3C125.212 9.64667 125.405 8.88 125.405 8C125.405 7.10667 125.212 6.34 124.825 5.7C124.452 5.04667 123.919 4.54667 123.225 4.2C122.545 3.84 121.739 3.66 120.805 3.66H117.845V12.34ZM131.129 15V0.999999H134.369V12.36H141.389V15H131.129ZM145.234 15V9.28L145.974 11.24L139.814 0.999999H143.254L147.974 8.86H145.994L150.734 0.999999H153.914L147.754 11.24L148.474 9.28V15H145.234Z" fill="#01A437"/>
</svg>
