<svg width="54" height="63" viewBox="0 0 54 63" fill="none" xmlns="http://www.w3.org/2000/svg">
<g clip-path="url(#clip0_23_165)">
<path d="M25.9584 60.7567C48.744 57.5918 61.3475 39.0089 49.412 0C40.056 8.17256 27.2679 13.4929 20.8475 24.4354C25.0487 29.0373 28.516 34.1328 29.4784 40.7915C35.2748 31.9717 41.6205 23.9418 44.9603 15.0123C41.537 36.4419 36.1713 44.5432 27.9183 55.4966C27.3454 57.3002 26.691 59.0619 25.9584 60.7731V60.7567ZM19.4105 62.9506C1.75769 57.5918 -6.67102 41.7349 6.27088 13.5752C16.7299 26.1467 35.1825 34.1328 23.1415 60.6689C22.9011 61.2254 22.6325 61.7622 22.3373 62.276C20.1708 49.156 11.5179 38.773 8.97791 27.7593C9.56678 45.7554 13.724 51.0099 20.162 63C19.9115 63 19.661 62.9671 19.4105 62.9287V62.9506Z" fill="#01A437"/>
</g>
<defs>
<clipPath id="clip0_23_165">
<rect width="54" height="63" fill="white"/>
</clipPath>
</defs>
</svg>
